<svg width="577" height="117" viewBox="0 0 577 117" fill="none" xmlns="http://www.w3.org/2000/svg">
<path d="M62.4307 60.2052H36.6671V86.0089H32V30.7589H66.2252V34.7434H36.6671V56.2211H62.4307V60.2052Z" fill="white"/>
<path d="M93.0591 86.0089H88.3921V30.7589H93.0591V86.0089Z" fill="white"/>
<path d="M156.091 34.7434H137.157V86.0089H132.49V34.7434H113.594V30.7589H156.091V34.7434Z" fill="white"/>
<path d="M217.834 86.0089H213.165L181.407 38.7276V86.0089H176.702V30.7589H181.407L213.204 78.0782V30.7589H217.834V86.0089Z" fill="white"/>
<path d="M274.037 70.527H248.953L243.264 86.0089H238.369L259.276 30.7589H263.715L284.622 86.0089H279.765L274.037 70.527ZM250.397 66.5425H272.557L261.477 36.4509L250.397 66.5425Z" fill="white"/>
<path d="M335.702 72.4242C335.702 69.3633 334.627 66.9473 332.477 65.1764C330.327 63.3802 326.393 61.6854 320.675 60.0916C314.96 58.4726 310.787 56.7143 308.154 54.8171C304.411 52.1356 302.54 48.619 302.54 44.268C302.54 40.0433 304.272 36.6154 307.736 33.9845C311.227 31.3283 315.679 30 321.093 30C324.761 30 328.038 30.7085 330.92 32.1252C333.83 33.5418 336.081 35.5148 337.674 38.0447C339.267 40.5746 340.067 43.395 340.067 46.5068H335.359C335.359 42.7374 334.07 39.7143 331.489 37.4376C328.909 35.1356 325.444 33.9845 321.093 33.9845C316.867 33.9845 313.503 34.9332 311 36.8304C308.497 38.7024 307.244 41.1562 307.244 44.1919C307.244 47 308.368 49.2897 310.621 51.0602C312.872 52.8312 316.475 54.3997 321.436 55.7658C326.393 57.1064 330.149 58.5105 332.704 59.9776C335.258 61.4196 337.182 63.1526 338.47 65.1764C339.762 67.2002 340.406 69.5909 340.406 72.3481C340.406 76.6995 338.661 80.1905 335.171 82.8214C331.703 85.4524 327.125 86.768 321.436 86.768C317.537 86.768 313.96 86.0722 310.696 84.6807C307.458 83.2897 304.991 81.3416 303.297 78.8373C301.627 76.3326 300.794 73.4614 300.794 70.2233H305.46C305.46 74.119 306.914 77.1926 309.825 79.4444C312.732 81.6959 316.602 82.8214 321.436 82.8214C325.736 82.8214 329.187 81.873 331.794 79.9755C334.4 78.0783 335.702 75.561 335.702 72.4242Z" fill="white"/>
<path d="M393.42 72.4242C393.42 69.3633 392.345 66.9473 390.195 65.1764C388.045 63.3802 384.111 61.6854 378.396 60.0916C372.678 58.4726 368.505 56.7143 365.876 54.8171C362.129 52.1356 360.258 48.619 360.258 44.268C360.258 40.0433 361.99 36.6154 365.458 33.9845C368.948 31.3283 373.4 30 378.814 30C382.483 30 385.756 30.7085 388.641 32.1252C391.549 33.5418 393.802 35.5148 395.395 38.0447C396.988 40.5746 397.785 43.395 397.785 46.5068H393.08C393.08 42.7374 391.791 39.7143 389.211 37.4376C386.63 35.1356 383.163 33.9845 378.814 33.9845C374.589 33.9845 371.225 34.9332 368.722 36.8304C366.216 38.7024 364.963 41.1562 364.963 44.1919C364.963 47 366.089 49.2897 368.34 51.0602C370.593 52.8312 374.197 54.3997 379.154 55.7658C384.111 57.1064 387.87 58.5105 390.425 59.9776C392.98 61.4196 394.9 63.1526 396.192 65.1764C397.48 67.2002 398.128 69.5909 398.128 72.3481C398.128 76.6995 396.38 80.1905 392.889 82.8214C389.425 85.4524 384.846 86.768 379.154 86.768C375.259 86.768 371.681 86.0722 368.417 84.6807C365.179 83.2897 362.712 81.3416 361.019 78.8373C359.348 76.3326 358.513 73.4614 358.513 70.2233H363.182C363.182 74.119 364.636 77.1926 367.543 79.4444C370.454 81.6959 374.323 82.8214 379.154 82.8214C383.454 82.8214 386.909 81.873 389.512 79.9755C392.119 78.0783 393.42 75.561 393.42 72.4242Z" fill="white"/>
<path d="M425.569 86.0089H420.9V30.7589H425.569V86.0089Z" fill="white"/>
<path d="M483.514 72.4242C483.514 69.3633 482.439 66.9473 480.289 65.1764C478.139 63.3802 474.205 61.6854 468.49 60.0916C462.772 58.4726 458.598 56.7143 455.969 54.8171C452.223 52.1356 450.351 48.619 450.351 44.268C450.351 40.0433 452.084 36.6154 455.551 33.9845C459.042 31.3283 463.494 30 468.908 30C472.576 30 475.85 30.7085 478.735 32.1252C481.642 33.5418 483.896 35.5148 485.489 38.0447C487.082 40.5746 487.878 43.395 487.878 46.5068H483.174C483.174 42.7374 481.885 39.7143 479.304 37.4376C476.724 35.1356 473.256 33.9845 468.908 33.9845C464.682 33.9845 461.318 34.9332 458.815 36.8304C456.309 38.7024 455.056 41.1562 455.056 44.1919C455.056 47 456.183 49.2897 458.433 51.0602C460.687 52.8312 464.29 54.3997 469.248 55.7658C474.205 57.1064 477.964 58.5105 480.519 59.9776C483.073 61.4196 484.993 63.1526 486.285 65.1764C487.574 67.2002 488.221 69.5909 488.221 72.3481C488.221 76.6995 486.473 80.1905 482.983 82.8214C479.518 85.4524 474.94 86.768 469.248 86.768C465.352 86.768 461.775 86.0722 458.511 84.6807C455.273 83.2897 452.806 81.3416 451.112 78.8373C449.442 76.3326 448.606 73.4614 448.606 70.2233H453.275C453.275 74.119 454.729 77.1926 457.637 79.4444C460.547 81.6959 464.417 82.8214 469.248 82.8214C473.547 82.8214 477.002 81.873 479.606 79.9755C482.212 78.0783 483.514 75.561 483.514 72.4242Z" fill="white"/>
<path d="M547.458 34.7434H528.523V86.0089H523.858V34.7434H504.961V30.7589H547.458V34.7434Z" fill="white"/>
<rect x="2" y="2" width="573" height="113" stroke="white" stroke-width="4"/>
</svg>
